<svg width="163" height="54" viewBox="0 0 163 54" fill="none" xmlns="http://www.w3.org/2000/svg">
    <path
        d="M50.1378 34.1708V21.0799H52.9055V26.4811H58.5241V21.0799H61.2855V34.1708H58.5241V28.7631H52.9055V34.1708H50.1378ZM75.5973 27.6253C75.5973 29.0529 75.3267 30.2674 74.7855 31.2688C74.2486 32.2702 73.5156 33.0351 72.5866 33.5635C71.6619 34.0877 70.6222 34.3498 69.4673 34.3498C68.304 34.3498 67.2599 34.0855 66.3352 33.5571C65.4105 33.0287 64.6797 32.2638 64.1428 31.2624C63.6058 30.261 63.3374 29.0486 63.3374 27.6253C63.3374 26.1978 63.6058 24.9833 64.1428 23.9819C64.6797 22.9804 65.4105 22.2177 66.3352 21.6935C67.2599 21.1651 68.304 20.9009 69.4673 20.9009C70.6222 20.9009 71.6619 21.1651 72.5866 21.6935C73.5156 22.2177 74.2486 22.9804 74.7855 23.9819C75.3267 24.9833 75.5973 26.1978 75.5973 27.6253ZM72.7912 27.6253C72.7912 26.7006 72.6527 25.9208 72.3757 25.2858C72.103 24.6509 71.7173 24.1694 71.2188 23.8412C70.7202 23.5131 70.1364 23.349 69.4673 23.349C68.7983 23.349 68.2145 23.5131 67.7159 23.8412C67.2173 24.1694 66.8295 24.6509 66.5526 25.2858C66.2798 25.9208 66.1435 26.7006 66.1435 27.6253C66.1435 28.55 66.2798 29.3299 66.5526 29.9648C66.8295 30.5998 67.2173 31.0813 67.7159 31.4094C68.2145 31.7375 68.7983 31.9016 69.4673 31.9016C70.1364 31.9016 70.7202 31.7375 71.2188 31.4094C71.7173 31.0813 72.103 30.5998 72.3757 29.9648C72.6527 29.3299 72.7912 28.55 72.7912 27.6253ZM85.7335 21.0799H88.5012V29.5813C88.5012 30.5358 88.2733 31.3711 87.8173 32.087C87.3656 32.8029 86.7328 33.3611 85.9189 33.7617C85.1049 34.158 84.1568 34.3561 83.0744 34.3561C81.9877 34.3561 81.0375 34.158 80.2235 33.7617C79.4096 33.3611 78.7768 32.8029 78.3251 32.087C77.8734 31.3711 77.6475 30.5358 77.6475 29.5813V21.0799H80.4153V29.3448C80.4153 29.8434 80.524 30.2865 80.7413 30.6743C80.9629 31.0621 81.274 31.3668 81.6745 31.5884C82.0751 31.81 82.5417 31.9208 83.0744 31.9208C83.6113 31.9208 84.0779 31.81 84.4743 31.5884C84.8748 31.3668 85.1838 31.0621 85.4011 30.6743C85.6227 30.2865 85.7335 29.8434 85.7335 29.3448V21.0799ZM90.7784 34.1708V21.0799H95.9432C96.9318 21.0799 97.7756 21.2567 98.4744 21.6104C99.1776 21.9598 99.7124 22.4563 100.079 23.0998C100.45 23.739 100.635 24.4911 100.635 25.3561C100.635 26.2255 100.447 26.9733 100.072 27.5998C99.6974 28.2219 99.1541 28.6992 98.4425 29.0316C97.7351 29.364 96.8786 29.5302 95.8729 29.5302H92.4148V27.3057H95.4254C95.9538 27.3057 96.3928 27.2333 96.7422 27.0884C97.0916 26.9435 97.3516 26.7262 97.522 26.4364C97.6967 26.1466 97.7841 25.7865 97.7841 25.3561C97.7841 24.9215 97.6967 24.555 97.522 24.2567C97.3516 23.9584 97.0895 23.7326 96.7358 23.5792C96.3864 23.4215 95.9453 23.3427 95.4126 23.3427H93.5462V34.1708H90.7784ZM97.848 28.2134L101.102 34.1708H98.0462L94.8629 28.2134H97.848ZM111.271 25.3114C111.182 25.0003 111.056 24.7255 110.894 24.4868C110.732 24.2439 110.534 24.0394 110.3 23.8732C110.07 23.7027 109.805 23.5728 109.507 23.4833C109.213 23.3938 108.887 23.349 108.529 23.349C107.86 23.349 107.272 23.5152 106.765 23.8476C106.262 24.18 105.87 24.6637 105.589 25.2986C105.308 25.9293 105.167 26.7006 105.167 27.6125C105.167 28.5245 105.305 29.3 105.582 29.9392C105.859 30.5784 106.251 31.0664 106.759 31.403C107.266 31.7354 107.864 31.9016 108.555 31.9016C109.181 31.9016 109.716 31.7908 110.159 31.5692C110.607 31.3434 110.947 31.0259 111.182 30.6168C111.42 30.2077 111.54 29.724 111.54 29.1658L112.102 29.2489H108.727V27.1651H114.205V28.8142C114.205 29.9648 113.962 30.9534 113.477 31.7802C112.991 32.6026 112.322 33.2375 111.469 33.685C110.617 34.1282 109.641 34.3498 108.542 34.3498C107.315 34.3498 106.237 34.0792 105.308 33.538C104.379 32.9925 103.654 32.2191 103.134 31.2177C102.619 30.212 102.361 29.0188 102.361 27.6381C102.361 26.577 102.514 25.631 102.821 24.8C103.132 23.9648 103.567 23.2574 104.125 22.6779C104.683 22.0983 105.333 21.6573 106.075 21.3547C106.816 21.0522 107.619 20.9009 108.484 20.9009C109.226 20.9009 109.916 21.0096 110.555 21.2269C111.195 21.44 111.761 21.7425 112.256 22.1346C112.754 22.5266 113.161 22.9932 113.477 23.5344C113.792 24.0713 113.994 24.6637 114.084 25.3114H111.271ZM116.284 34.1708V21.0799H119.052V31.8888H124.664V34.1708H116.284ZM129.088 34.1708H126.122L130.641 21.0799H134.208L138.72 34.1708H135.754L132.475 24.0713H132.373L129.088 34.1708ZM128.902 29.0252H135.908V31.1857H128.902V29.0252ZM147.099 24.8448C147.048 24.3292 146.828 23.9286 146.44 23.6431C146.053 23.3576 145.526 23.2148 144.862 23.2148C144.41 23.2148 144.028 23.2787 143.717 23.4066C143.406 23.5302 143.168 23.7027 143.001 23.9243C142.839 24.1459 142.759 24.3973 142.759 24.6786C142.75 24.913 142.799 25.1175 142.906 25.2922C143.016 25.4669 143.168 25.6182 143.359 25.7461C143.551 25.8696 143.773 25.9783 144.024 26.0721C144.276 26.1615 144.544 26.2382 144.83 26.3022L146.006 26.5834C146.577 26.7113 147.101 26.8817 147.578 27.0948C148.055 27.3079 148.469 27.5699 148.818 27.881C149.168 28.1921 149.438 28.5586 149.63 28.9804C149.826 29.4023 149.926 29.886 149.93 30.4314C149.926 31.2326 149.722 31.9272 149.317 32.5152C148.916 33.099 148.337 33.5529 147.578 33.8767C146.824 34.1963 145.914 34.3561 144.849 34.3561C143.792 34.3561 142.871 34.1942 142.087 33.8704C141.308 33.5465 140.698 33.0671 140.259 32.4321C139.825 31.7929 139.597 31.0025 139.575 30.0607H142.254C142.283 30.4996 142.409 30.8661 142.631 31.1601C142.857 31.4499 143.157 31.6694 143.532 31.8185C143.911 31.9634 144.339 32.0358 144.817 32.0358C145.286 32.0358 145.692 31.9677 146.038 31.8313C146.387 31.6949 146.658 31.5053 146.849 31.2624C147.041 31.0195 147.137 30.7404 147.137 30.425C147.137 30.131 147.05 29.8838 146.875 29.6836C146.705 29.4833 146.453 29.3128 146.121 29.1722C145.793 29.0316 145.39 28.9037 144.913 28.7887L143.487 28.4307C142.384 28.1623 141.512 27.7425 140.873 27.1715C140.234 26.6005 139.916 25.8313 139.92 24.864C139.916 24.0713 140.127 23.3789 140.553 22.7865C140.984 22.1942 141.574 21.7319 142.324 21.3995C143.074 21.0671 143.926 20.9009 144.881 20.9009C145.852 20.9009 146.7 21.0671 147.425 21.3995C148.153 21.7319 148.72 22.1942 149.125 22.7865C149.53 23.3789 149.739 24.065 149.751 24.8448H147.099ZM158.894 24.8448C158.843 24.3292 158.623 23.9286 158.235 23.6431C157.847 23.3576 157.321 23.2148 156.656 23.2148C156.205 23.2148 155.823 23.2787 155.512 23.4066C155.201 23.5302 154.963 23.7027 154.796 23.9243C154.634 24.1459 154.553 24.3973 154.553 24.6786C154.545 24.913 154.594 25.1175 154.7 25.2922C154.811 25.4669 154.963 25.6182 155.154 25.7461C155.346 25.8696 155.568 25.9783 155.819 26.0721C156.07 26.1615 156.339 26.2382 156.624 26.3022L157.801 26.5834C158.372 26.7113 158.896 26.8817 159.373 27.0948C159.85 27.3079 160.264 27.5699 160.613 27.881C160.963 28.1921 161.233 28.5586 161.425 28.9804C161.621 29.4023 161.721 29.886 161.725 30.4314C161.721 31.2326 161.517 31.9272 161.112 32.5152C160.711 33.099 160.132 33.5529 159.373 33.8767C158.619 34.1963 157.709 34.3561 156.644 34.3561C155.587 34.3561 154.666 34.1942 153.882 33.8704C153.102 33.5465 152.493 33.0671 152.054 32.4321C151.619 31.7929 151.392 31.0025 151.37 30.0607H154.048C154.078 30.4996 154.204 30.8661 154.426 31.1601C154.651 31.4499 154.952 31.6694 155.327 31.8185C155.706 31.9634 156.134 32.0358 156.612 32.0358C157.08 32.0358 157.487 31.9677 157.833 31.8313C158.182 31.6949 158.453 31.5053 158.644 31.2624C158.836 31.0195 158.932 30.7404 158.932 30.425C158.932 30.131 158.845 29.8838 158.67 29.6836C158.499 29.4833 158.248 29.3128 157.916 29.1722C157.588 29.0316 157.185 28.9037 156.708 28.7887L155.282 28.4307C154.178 28.1623 153.307 27.7425 152.668 27.1715C152.029 26.6005 151.711 25.8313 151.715 24.864C151.711 24.0713 151.922 23.3789 152.348 22.7865C152.779 22.1942 153.369 21.7319 154.119 21.3995C154.869 21.0671 155.721 20.9009 156.676 20.9009C157.647 20.9009 158.495 21.0671 159.22 21.3995C159.948 21.7319 160.515 22.1942 160.92 22.7865C161.325 23.3789 161.534 24.065 161.546 24.8448H158.894Z"
        fill="#53B9B3" />
    <path fill-rule="evenodd" clip-rule="evenodd"
        d="M41.7035 54H0V38.82L10.8429 27L0 15.18V0H41.7035V15.18L30.8606 27L41.7035 38.82V54ZM18.9454 27L5.9577 41.16V48H7.68541L20.8518 34.74L34.0182 48H35.7459V41.16L22.7582 27L35.7459 12.84V6.00002H5.9577V12.84L18.9454 27Z"
        fill="#53B9B3" />
    <path d="M31.0393 12H10.6642L20.8517 22.26L31.0393 12Z" fill="#53B9B3" />
</svg>